<?xml version="1.0" encoding="UTF-8" standalone="no"?>
<svg
   xmlns:dc="http://purl.org/dc/elements/1.1/"
   xmlns:cc="http://creativecommons.org/ns#"
   xmlns:rdf="http://www.w3.org/1999/02/22-rdf-syntax-ns#"
   xmlns:svg="http://www.w3.org/2000/svg"
   xmlns="http://www.w3.org/2000/svg"
   viewBox="0 0 258.66666 258.66666"
   height="258.66666"
   width="258.66666"
   xml:space="preserve"
   id="svg2"
   version="1.1"><metadata
     id="metadata8"><rdf:RDF><cc:Work
         rdf:about=""><dc:format>image/svg+xml</dc:format><dc:type
           rdf:resource="http://purl.org/dc/dcmitype/StillImage" /></cc:Work></rdf:RDF></metadata><defs
     id="defs6" /><g
     transform="matrix(1.3333333,0,0,-1.3333333,0,258.66667)"
     id="g10"><g
       transform="scale(0.1)"
       id="g12"><path
         id="path14"
         style="fill:#ffffff;fill-opacity:1;fill-rule:evenodd;stroke:none"
         d="M 2.59766,1933.23 H 1930.16 V 5.66797 H 2.59766 V 1933.23" /><path
         id="path16"
         style="fill:#F14E95;fill-opacity:1;fill-rule:evenodd;stroke:none"
         d="m 1845.12,882.801 c 0,10.82 -8.92,19.551 -19.74,19.551 -10.82,0 -19.74,-8.731 -19.74,-19.551 0,-11.008 8.92,-19.738 19.74,-19.738 10.82,0 19.74,8.73 19.74,19.738" /><path
         id="path18"
         style="fill:#ffffff;fill-opacity:1;fill-rule:evenodd;stroke:none"
         d="m 1842.84,882.801 c 0,-9.68 -7.78,-17.461 -17.46,-17.461 -9.68,0 -17.46,7.781 -17.46,17.273 0,9.68 7.78,17.461 17.46,17.461 9.68,0 17.46,-7.781 17.46,-17.273" /><path
         id="path20"
         style="fill:#F14E95;fill-opacity:1;fill-rule:evenodd;stroke:none"
         d="m 1817.97,872.551 h 2.85 v 9.301 h 7.22 c 4.36,0 3.22,-3.985 3.6,-6.645 l 0.38,-2.656 h 3.42 c -1.14,1.898 -0.76,2.277 -0.95,5.125 -0.38,3.797 -0.57,4.176 -2.66,5.508 2.09,1.707 2.85,2.656 2.85,5.5 -0.38,4.937 -3.61,5.504 -7.02,5.504 h -9.69 v -21.637" /><path
         id="path22"
         style="fill:#F14E95;fill-opacity:1;fill-rule:evenodd;stroke:none"
         d="m 1376.66,904.629 h 215.63 c 319.64,0 319.64,-210.5 0,-210.5 h -215.63 v 210.5" /><path
         id="path24"
         style="fill:#F14E95;fill-opacity:1;fill-rule:evenodd;stroke:none"
         d="m 865.113,692.039 c 91.492,0 166.467,48.973 166.467,108.762 0,59.98 -74.975,108.765 -166.467,108.765 -91.871,0 -166.656,-48.785 -166.656,-108.765 0,-59.789 74.785,-108.762 166.656,-108.762" /><path
         id="path26"
         style="fill:#F14E95;fill-opacity:1;fill-rule:evenodd;stroke:none"
         d="M 198.68,694.129 H 87.6367 v 210.5 H 189.57 c 0,0 84.086,2.281 84.086,-53.527 0,0 3.414,-38.34 -29.801,-49.539 0,0 41.379,-11.012 41.379,-50.114 0,-39.101 -38.531,-57.32 -86.554,-57.32" /><path
         id="path28"
         style="fill:#F14E95;fill-opacity:1;fill-rule:evenodd;stroke:none"
         d="m 1823.86,1057.81 11.96,-6.84 c 0,0 -15.34,-21.73 -39.37,-45.1 25.17,-33.518 45.63,-60.811 45.63,-60.811 h -20.69 l -36.88,49.754 c -4.11,-3.61 -8.4,-7.188 -12.85,-10.653 -37.58,-29.039 -66.62,-45.363 -93.77,-45.363 -27.33,0 -76.87,22.398 -76.87,73.073 0,50.68 33.98,74.6 67,96.62 8.02,5.39 15.22,10.02 21.73,14.15 0,0 -30.46,34.82 -30.46,65.57 0,30.94 26.96,55.61 56.94,55.61 30.18,0 52.2,-27.9 52.2,-56.56 0,-27.05 -26.19,-48.59 -56.05,-69.79 14.58,-19.16 45.78,-60.62 73.92,-98.09 11.84,11.05 24.36,23.8 37.56,38.43" /><path
         id="path30"
         style="fill:#F14E95;fill-opacity:1;fill-rule:evenodd;stroke:none"
         d="m 927.75,945.059 121.29,301.801 121.86,-301.801 h -18.79 l -39.29,97.181 H 985.832 L 946.926,945.059 H 927.75" /><path
         id="path32"
         style="fill:#F14E95;fill-opacity:1;fill-rule:evenodd;stroke:none"
         d="m 449.039,1236.99 h 66.246 c 186.778,0 190.953,-291.931 -4.363,-291.931 h -61.883 v 291.931" /><path
         id="path34"
         style="fill:#F14E95;fill-opacity:1;fill-rule:evenodd;stroke:none"
         d="m 847.648,945.059 h -73.457 v 291.931 h 66.438 c 0,0 71.371,0 74.406,-70.99 0,0 4.176,-46.5 -32.269,-66.24 0,0 57.894,-11.77 57.894,-73.08 0,-61.879 -49.16,-81.621 -93.012,-81.621" /><path
         id="path36"
         style="fill:#F14E95;fill-opacity:1;fill-rule:evenodd;stroke:none"
         d="M 163.563,945.059 H 90.1055 V 1236.99 H 156.73 c 0,0 71.372,0 74.215,-70.99 0,0 4.368,-46.5 -32.265,-66.24 0,0 58.273,-11.77 58.273,-73.08 0,-61.879 -49.543,-81.621 -93.39,-81.621" /><path
         id="path38"
         style="fill:#ffffff;fill-opacity:1;fill-rule:evenodd;stroke:none"
         d="m 1827.85,891.723 c 1.7,0 4.36,-0.379 3.98,-4.176 -0.38,-2.848 -2.09,-3.227 -3.98,-3.227 h -7.03 v 7.403 h 7.03" /><path
         id="path40"
         style="fill:#ffffff;fill-opacity:1;fill-rule:evenodd;stroke:none"
         d="m 1546.16,757.906 h 22.59 c 122.62,0 122.62,81.239 0,81.239 h -22.59 v -81.239" /><path
         id="path42"
         style="fill:#F14E95;fill-opacity:1;fill-rule:evenodd;stroke:none"
         d="m 1035.19,904.629 h 113.31 l 100.41,-111.797 c 5.51,-5.887 11.2,-4.367 7.41,4.555 -3.8,9.109 -6.64,28.09 -6.64,28.09 v 79.152 h 111.22 v -210.5 h -111.6 l -101.37,107.434 c -5.5,6.074 -11.2,4.554 -7.4,-4.555 3.61,-8.922 5.51,-28.094 5.51,-28.094 v -74.785 h -110.85 v 210.5" /><path
         id="path44"
         style="fill:#ffffff;fill-opacity:1;fill-rule:evenodd;stroke:none"
         d="m 865.113,842.371 c 31.321,0 56.754,-18.601 56.754,-41.57 0,-22.778 -25.433,-41.571 -56.754,-41.571 -31.32,0 -56.945,18.793 -56.945,41.571 0,22.969 25.625,41.57 56.945,41.57" /><path
         id="path46"
         style="fill:#F14E95;fill-opacity:1;fill-rule:evenodd;stroke:none"
         d="m 298.52,904.629 h 277.699 l 32.836,-59.602 31.32,59.602 h 115.598 l -97.946,-120.91 v -89.59 h -99.273 v 92.629 l -91.867,109.711 v -48.973 h -77.258 v -20.687 h 70.992 V 772.711 H 389.629 V 751.262 H 470.68 V 694.129 H 298.52 v 210.5" /><path
         id="path48"
         style="fill:#ffffff;fill-opacity:1;fill-rule:evenodd;stroke:none"
         d="m 164.512,822.25 h 19.933 c 21.254,0 21.254,31.887 0,31.887 H 164.512 V 822.25" /><path
         id="path50"
         style="fill:#ffffff;fill-opacity:1;fill-rule:evenodd;stroke:none"
         d="m 164.512,778.406 h 22.777 c 29.801,0 29.801,-34.738 0,-34.738 h -22.777 v 34.738" /><path
         id="path52"
         style="fill:#ffffff;fill-opacity:1;fill-rule:evenodd;stroke:none"
         d="M 1774.31,1008.56 1700,1108.8 c -26.86,-18.66 -34.68,-23.46 -47.92,-33.53 -14.04,-11.01 -33.79,-27.33 -33.79,-58.46 0,-31.13 24.68,-59.22 56.94,-59.22 23.73,0 56.68,14.047 99.08,50.97" /><path
         id="path54"
         style="fill:#ffffff;fill-opacity:1;fill-rule:evenodd;stroke:none"
         d="m 1702.44,1130.67 c 13.53,8.61 23.5,15.36 31.64,23.94 13.67,14.43 15.94,23.54 15.94,32.65 0,8.92 -5.88,37.96 -35.88,37.96 -30.18,0 -37.01,-26.76 -37.01,-40.24 0,-12.18 7.66,-29.94 25.31,-54.31" /><path
         id="path56"
         style="fill:#F14E95;fill-opacity:1;fill-rule:evenodd;stroke:none"
         d="m 1316.87,1113.99 h 178.04 v 123 h 16.89 V 945.059 h -16.89 V 1095.77 H 1316.87 V 945.059 h -16.9 v 291.931 h 16.9 v -123" /><path
         id="path58"
         style="fill:#F14E95;fill-opacity:1;fill-rule:evenodd;stroke:none"
         d="m 1113.39,1236.99 h 168.17 v -16.51 h -75.73 V 945.059 h -16.9 v 275.421 h -75.54 v 16.51" /><path
         id="path60"
         style="fill:#ffffff;fill-opacity:1;fill-rule:evenodd;stroke:none"
         d="m 1105.98,1059.14 -56.94,141.41 -56.563,-141.41 z" /><path
         id="path62"
         style="fill:#ffffff;fill-opacity:1;fill-rule:evenodd;stroke:none"
         d="m 468.594,1218.77 h 44.035 c 167.226,0 164.762,-254.918 0,-254.918 h -44.035 v 254.918" /><path
         id="path64"
         style="fill:#F14E95;fill-opacity:1;fill-rule:evenodd;stroke:none"
         d="m 279.539,1236.99 h 139.133 v -18.22 H 297.383 v -106.11 h 117.871 v -16.89 H 297.383 V 963.09 H 418.672 V 945.059 H 279.539 v 291.931" /><path
         id="path66"
         style="fill:#ffffff;fill-opacity:1;fill-rule:evenodd;stroke:none"
         d="m 790.516,1219.15 h 48.972 c 77.067,0 77.254,-114.84 0,-114.84 h -48.972 v 114.84" /><path
         id="path68"
         style="fill:#ffffff;fill-opacity:1;fill-rule:evenodd;stroke:none"
         d="m 106.43,1219.15 h 48.968 c 77.067,0 77.258,-114.84 0,-114.84 H 106.43 v 114.84" /><path
         id="path70"
         style="fill:#ffffff;fill-opacity:1;fill-rule:evenodd;stroke:none"
         d="m 790.895,1085.52 h 65.109 c 91.488,0 89.019,-122.239 -2.469,-122.239 h -62.64 v 122.239" /><path
         id="path72"
         style="fill:#ffffff;fill-opacity:1;fill-rule:evenodd;stroke:none"
         d="m 107,1085.52 h 64.914 c 91.684,0 89.211,-122.239 -2.465,-122.239 H 107 v 122.239" /></g></g></svg>
