<?xml version="1.0" ?><svg height="60px" version="1.1" viewBox="0 0 60 60" width="60px" xmlns="http://www.w3.org/2000/svg" xmlns:sketch="http://www.bohemiancoding.com/sketch/ns" xmlns:xlink="http://www.w3.org/1999/xlink"><title/><desc/><defs/><g fill="none" fill-rule="evenodd" id="black" stroke="none" stroke-width="1"><g id="slice" transform="translate(-800.000000, -200.000000)"/><g fill="#F14E95;" id="amazon" transform="translate(11.000000, 12.000000)"><path d="M19.4209671,9.90222301 C17.8406632,10.1124507 16.2599491,10.39782 14.9545164,11.0335689 C12.4121636,12.0977939 10.6931935,14.3634406 10.6931935,17.6928903 C10.6931935,21.8738043 13.3052897,23.9959221 16.6033329,23.9959221 C17.7044584,23.9959221 18.5975845,23.8566146 19.4205568,23.643854 C20.7276306,23.2183329 21.8267048,22.4398994 23.1321375,21.022762 C23.8886485,22.086987 24.0937762,22.582584 25.4004397,23.7139299 C25.7442337,23.8570367 26.0880277,23.8570367 26.3620783,23.643854 C27.1866917,22.9354964 28.6287395,21.6614659 29.3868915,20.9526861 C29.729865,20.6668946 29.6601216,20.2439064 29.4558144,19.8884611 C28.6984829,18.897267 27.943613,18.0458026 27.943613,16.1360232 L27.943613,9.75953834 C27.943613,7.06583758 28.1479201,4.58743024 26.225053,2.74772675 C24.6447492,1.25755849 22.1704988,0.692307692 20.2468112,0.692307692 L19.4205568,0.692307692 C15.9157448,0.905068261 12.2049847,2.46151313 11.3787303,6.92568577 C11.243346,7.49093657 11.6560629,7.70411928 11.9309341,7.77715019 L15.7787195,8.27274723 C16.1914365,8.19971632 16.3965642,7.84680395 16.4646666,7.49093657 C16.8101016,5.93406955 18.0462012,5.15605819 19.4205568,5.01295138 L19.697069,5.01295138 C20.5192208,5.01295138 21.4135776,5.36839661 21.8956277,6.07379921 C22.4429084,6.92568577 22.376447,8.05956452 22.376447,9.05075859 L22.376447,9.61685368 C21.483321,9.68946244 20.4523492,9.75953834 19.4209671,9.90222301 Z M22.3768573,13.7272697 C22.3768573,15.3571676 22.4433187,16.6311981 21.6203463,18.0453805 C21.139527,19.0365746 20.3149136,19.6748563 19.4209671,19.888039 C19.2839418,19.888039 19.0796346,19.9610699 18.8720453,19.9610699 C17.3606644,19.9610699 16.4650768,18.7566931 16.4650768,16.9845326 C16.4650768,14.7188859 17.7721506,13.6546609 19.4209671,13.1590639 C20.3153239,12.9463033 21.3462957,12.8762274 22.3768573,12.8762274 L22.3768573,13.7272697 L22.3768573,13.7272697 Z M35.035288,33.6136285 C36.7156941,32.1513217 37.4246155,29.4964582 37.4615385,28.1101374 L37.4615385,27.8792246 C37.4615385,27.5693709 37.3876925,27.340991 37.3142568,27.2253236 C36.9778473,26.8027574 34.5113918,26.4160736 32.3846278,27.0703967 C31.7877061,27.2650051 31.26381,27.5326444 30.7788881,27.8792246 C30.4055557,28.1498189 30.4798119,28.493022 30.8535546,28.4562954 C31.26381,28.3777767 31.7877061,28.3414723 32.3846278,28.2616871 C33.6917015,28.1493968 35.2227747,28.1101374 35.5952866,28.6091116 C36.116311,29.2621683 34.998365,32.1112181 34.5109816,33.3430342 C34.3636999,33.7297181 34.6988785,33.8842228 35.035288,33.6136285 L35.035288,33.6136285 Z M0.723576767,28.1101374 C5.53915477,32.6131473 11.8862162,35.3076923 18.9815835,35.3076923 C23.3869061,35.3076923 28.4638168,34.0366168 32.3846278,31.6130882 C32.9085239,31.3028123 33.4295483,30.9566543 33.9144702,30.5733475 C34.5868788,30.0743733 33.9899572,29.302272 33.3175486,29.6091707 C33.0192929,29.7248381 32.6828834,29.8801871 32.385038,29.9954324 C28.0892536,31.7287556 23.5748031,32.5371613 19.3914287,32.5371613 C12.7448808,32.5371613 6.32397337,30.6497556 1.13424243,27.5330665 C0.648500027,27.2650051 0.311680336,27.7635572 0.723576767,28.1101374 L0.723576767,28.1101374 Z"/></g></g></svg>
