<?xml version="1.0" encoding="UTF-8" standalone="no"?>
<svg
   xmlns:dc="http://purl.org/dc/elements/1.1/"
   xmlns:cc="http://creativecommons.org/ns#"
   xmlns:rdf="http://www.w3.org/1999/02/22-rdf-syntax-ns#"
   xmlns:svg="http://www.w3.org/2000/svg"
   xmlns="http://www.w3.org/2000/svg"
   viewBox="0 0 449.26666 31.266666"
   height="31.266666"
   width="449.26666"
   xml:space="preserve"
   id="svg2"
   version="1.1"><metadata
     id="metadata8"><rdf:RDF><cc:Work
         rdf:about=""><dc:format>image/svg+xml</dc:format><dc:type
           rdf:resource="http://purl.org/dc/dcmitype/StillImage" /></cc:Work></rdf:RDF></metadata><defs
     id="defs6"><clipPath
       id="clipPath20"
       clipPathUnits="userSpaceOnUse"><path
         id="path18"
         d="M 0,4 V 234 H 3370 V 4 Z" /></clipPath></defs><g
     transform="matrix(1.3333333,0,0,-1.3333333,0,31.266667)"
     id="g10"><g
       transform="scale(0.1)"
       id="g12"><g
         id="g14"><g
           clip-path="url(#clipPath20)"
           id="g16"><path
             id="path22"
             style="fill:#F14E95;fill-opacity:1;fill-rule:nonzero;stroke:none"
             d="m 77.6563,214.023 c 0,4.442 0.2304,7.915 -2.4649,11.129 -2.9219,3.442 -7.043,4.09 -12.8828,4.09 H 50.1367 V 118.676 h 14.6055 c 4.6445,0 8.2773,1.594 10.707,4.449 2.918,3.473 2.2071,8.922 2.2071,11.777 z M 50.1367,113.586 V 7.30078 h 9.9649 V 2.04688 H 0 v 5.2539 H 9.73828 V 229.242 H 0 v 5.254 h 70.582 c 4.8672,0 22.8789,1.039 33.106,-5.484 11.191,-7.074 14.339,-16.614 14.339,-28.391 v -55.207 c 0,-5.875 -1.461,-16.191 -12.398,-23.523 -10.4493,-6.879 -27.7423,-8.305 -41.8595,-8.305 H 50.1367" /><path
             id="path24"
             style="fill:#F14E95;fill-opacity:1;fill-rule:nonzero;stroke:none"
             d="m 384.785,192.762 c 0,11.687 -4.379,16.422 -13.367,16.226 -9.641,0 -15.129,-4.183 -15.129,-16.226 V 19.7305 c 0,-8.7617 2.856,-15.54691 13.828,-15.54691 10.742,0 14.668,4.41407 14.668,15.54691 z M 421.16,34.3359 C 421.16,13.3398 407.34,-0.160156 370.313,0 330.688,0 319.945,13.3398 319.945,34.3359 V 174.883 c 0,25.019 17.528,37.773 51.473,37.969 32.645,0.16 49.742,-16.262 49.742,-37.969 V 34.3359" /><path
             id="path26"
             style="fill:#F14E95;fill-opacity:1;fill-rule:nonzero;stroke:none"
             d="M 743.93,211.195 V 169.07 h -5.485 v 32.813 h -30.89 V 6.74609 h 8.988 V 2.04688 H 662.41 v 4.69921 h 8.797 V 201.883 H 640.508 V 169.07 h -5.453 v 42.125 H 743.93" /><path
             id="path28"
             style="fill:#F14E95;fill-opacity:1;fill-rule:nonzero;stroke:none"
             d="M 1066.7,211.195 V 169.07 h -5.45 v 32.813 h -30.9 V 6.74609 h 8.99 V 2.04688 h -54.098 v 4.69921 h 8.766 V 201.883 H 963.34 V 169.07 h -5.485 v 42.125 H 1066.7" /><path
             id="path30"
             style="fill:#F14E95;fill-opacity:1;fill-rule:nonzero;stroke:none"
             d="M 1324.89,113.16 H 1365 v 18.27 h 5.48 V 85.4453 H 1365 v 18.4027 h -40.11 V 11.3555 H 1365 v 31.5429 h 5.48 V 2.04688 h -90.96 v 4.69921 h 9.02 V 206.492 h -9.02 v 4.703 h 90.96 V 170.309 H 1365 v 31.574 h -40.11 V 113.16" /><path
             id="path32"
             style="fill:#F14E95;fill-opacity:1;fill-rule:nonzero;stroke:none"
             d="m 1652.94,192.762 c 0,4.023 0.65,6.945 -2.2,10.066 -3.08,3.242 -7.66,3.664 -11.16,3.664 h -11.2 v -97.515 h 13.18 c 4.15,0 7.43,1.457 9.63,4.019 2.6,3.082 1.75,8.051 1.75,10.582 z m 11.59,-83.59 c 0,-1.301 13.4,-2.375 22.55,-8.57 9.45,-6.4262 10.33,-13.145 10.33,-22.4575 V 6.74609 h 8.99 V 2.04688 h -45.37 V 85.6094 c 0,6.5859 1.55,12.9804 -4.8,16.8086 -3.96,2.531 -11.4,2.012 -15.59,2.012 h -12.26 V 6.74609 h 8.76 V 2.04688 h -54.13 v 4.69921 h 9.02 V 206.492 h -9.02 v 4.703 h 63.58 c 4.38,0 20.57,0.942 29.82,-4.929 10.03,-6.364 12.88,-14.961 12.88,-25.543 v -44.524 c 0,-2.207 0.69,-12.234 -7.43,-19.179 -7.47,-6.586 -17.33,-6.942 -17.33,-7.848" /><path
             id="path34"
             style="fill:#F14E95;fill-opacity:1;fill-rule:nonzero;stroke:none"
             d="m 1939.56,76.6836 -37.9,129.8084 h -8.96 v 4.703 h 54.1 v -4.703 h -8.73 l 32,-110.1092 28.23,110.1092 h -8.99 v 4.703 h 29.57 v -4.703 h -8.73 L 1975.94,76.3281 V 6.74609 h 8.76 V 2.04688 h -54.13 v 4.69921 h 8.99 V 76.6836" /><path
             id="path36"
             style="fill:#F14E95;fill-opacity:1;fill-rule:nonzero;stroke:none"
             d="M 2278.92,229.242 V 122.504 h 21.15 c 0.75,0 5.13,-0.195 7.83,2.66 2.43,2.633 1.68,6.461 1.68,8.508 v 81.742 c 0,0.844 0.49,8.535 -1.68,11.168 -2.21,2.66 -11.46,2.66 -11.72,2.66 z m 0,-221.94122 h 21.67 c 0.71,0 8.02,0 11.69,2.85552 3.89,3.2109 5.35,6.6835 5.35,11.3593 v 82.1364 c 0,3.473 -0.26,6.293 -2.43,8.953 -2.47,2.825 -6.59,3.606 -11.2,3.606 h -25.08 z m 79.11,80.93752 V 35.8945 c 0,-8.8906 -0.52,-15.4179 -6.84,-22.5273 -8.73,-9.50392 -26.97,-11.32032 -34.79,-11.32032 h -87.59 v 5.2539 h 9.7 V 229.242 h -9.7 v 5.254 h 83.47 c 10.41,0 18.23,-1.851 26.02,-7.723 12.89,-9.734 11.69,-21.675 11.69,-21.906 v -55.785 c 0,-0.191 0.48,-11.359 -7.79,-18.238 -10.68,-8.953 -18.99,-9.344 -18.76,-10.379 0,-1.594 14.86,-1.399 25.57,-10.52 6.33,-5.48 9.02,-11.1598 9.02,-21.7067" /><path
             id="path38"
             style="fill:#F14E95;fill-opacity:1;fill-rule:nonzero;stroke:none"
             d="m 2610.7,73.1797 h 41.16 l -19.32,113.7423 z m 16.85,133.3123 h -9.02 v 4.703 h 55.91 v -4.703 h -10.12 L 2700.73,6.74609 h 8.95 V 2.04688 h -54.78 v 4.69921 h 7.69 l -8.76,58.41411 h -44.52 L 2597.3,6.74609 h 8.99 V 2.04688 h -28.46 v 4.69921 h 7.85 l 41.87,199.74591" /><path
             id="path40"
             style="fill:#F14E95;fill-opacity:1;fill-rule:nonzero;stroke:none"
             d="m 2991.98,192.762 c 0,4.023 0.66,6.945 -2.2,10.066 -3.05,3.242 -7.66,3.664 -11.17,3.664 h -11.16 v -97.515 h 13.15 c 4.15,0 7.43,1.457 9.63,4.019 2.66,3.082 1.75,8.051 1.75,10.582 z m 11.62,-83.59 c 0,-1.301 13.37,-2.375 22.59,-8.57 9.38,-6.4262 10.26,-13.145 10.26,-22.4575 V 6.74609 h 8.98 V 2.04688 h -45.3 V 85.6094 c 0,6.5859 1.49,12.9804 -4.87,16.8086 -3.96,2.531 -11.39,2.012 -15.54,2.012 h -12.27 V 6.74609 h 8.79 V 2.04688 h -54.16 v 4.69921 h 8.99 V 206.492 h -8.99 v 4.703 h 63.55 c 4.37,0 20.6,0.942 29.82,-4.929 10.06,-6.364 12.91,-14.961 12.91,-25.543 v -44.524 c 0,-2.207 0.65,-12.234 -7.43,-19.179 -7.49,-6.586 -17.33,-6.942 -17.33,-7.848" /><path
             id="path42"
             style="fill:#F14E95;fill-opacity:1;fill-rule:nonzero;stroke:none"
             d="M 3322.19,2.04688 3278.17,175.789 V 6.74609 h 8.97 V 2.04688 h -28.5 v 4.69921 h 8.8 V 206.492 h -8.8 v 4.703 h 45.33 L 3349.8,29.9492 V 206.492 h -8.76 v 4.703 h 28.49 v -4.703 h -9.02 V 2.04688 h -38.32" /></g></g></g></g></svg>
