<?xml version="1.0" encoding="UTF-8" standalone="no"?>
<svg
   xmlns:dc="http://purl.org/dc/elements/1.1/"
   xmlns:cc="http://creativecommons.org/ns#"
   xmlns:rdf="http://www.w3.org/1999/02/22-rdf-syntax-ns#"
   xmlns:svg="http://www.w3.org/2000/svg"
   xmlns="http://www.w3.org/2000/svg"
   viewBox="0 0 816 1056"
   height="1056"
   width="816"
   xml:space="preserve"
   id="svg2"
   version="1.1"><metadata
     id="metadata8"><rdf:RDF><cc:Work
         rdf:about=""><dc:format>image/svg+xml</dc:format><dc:type
           rdf:resource="http://purl.org/dc/dcmitype/StillImage" /></cc:Work></rdf:RDF></metadata><defs
     id="defs6"><clipPath
       id="clipPath18"
       clipPathUnits="userSpaceOnUse"><path
         id="path16"
         d="M 0,792 H 612 V 0 H 0 Z" /></clipPath></defs><g
     transform="matrix(1.3333333,0,0,-1.3333333,0,1056)"
     id="g10"><g
       id="g12"><g
         clip-path="url(#clipPath18)"
         id="g14"><path
           id="path20"
           style="fill:#F14E95;fill-opacity:1;fill-rule:evenodd;stroke:none"
           d="m 300.33,485.466 c 2.367,0 4.594,-0.085 6.597,-0.758 1.736,-0.574 3.599,-2.383 5.505,-2.383 0.404,0.519 4.034,4.123 4.034,2.243 h 0.445 v -13.463 c 0,-0.589 0.14,-0.448 -0.445,-0.448 v -0.449 c -0.422,0.097 -0.841,0.195 -1.276,0.295 -0.631,0.209 -0.995,0.546 -1.343,1.064 -0.702,1.431 -1.403,2.848 -2.103,4.278 -2.467,4.151 -7.477,8.624 -12.786,6.086 -1.876,-0.883 -3.5,-2.411 -3.782,-4.571 -1.078,-8.008 13.096,-7.77 17.744,-10.63 2.101,-1.291 3.739,-3.325 4.565,-5.625 0.94,-2.636 0.841,-6.018 0.03,-8.679 -2.117,-6.858 -9.511,-10.367 -16.694,-8.542 -2.55,0.659 -5.393,3.787 -7.941,1.935 -0.546,-0.379 -3.752,-2.483 -3.752,-1.192 h -0.449 v 13.912 c 0,0.631 -0.295,0.899 0.449,0.899 v 0.447 c 3.22,-0.532 3.598,-3.323 4.986,-5.793 2.436,-4.346 7.38,-8.834 12.897,-7.529 2.339,0.56 3.976,2.173 4.802,4.416 0.507,1.417 0.353,2.948 -0.209,4.251 -0.756,1.738 -2.409,2.735 -4.033,3.463 -5.014,2.258 -10.489,2.119 -14.775,5.791 -7.492,6.425 -2.282,20.533 7.534,20.533 v 0.449 m 56.468,0 c 2.352,0 4.788,-0.028 6.75,-0.813 1.61,-0.631 3.556,-2.328 5.348,-2.328 0.408,0.519 4.035,4.123 4.035,2.243 h 0.447 v -13.463 c 0,-0.589 0.142,-0.448 -0.447,-0.448 v -0.449 c -0.421,0.097 -0.841,0.195 -1.276,0.295 -0.629,0.209 -0.995,0.546 -1.343,1.064 -0.701,1.431 -1.401,2.848 -2.1,4.278 -2.466,4.151 -7.481,8.624 -12.788,6.086 -1.891,-0.883 -3.5,-2.411 -3.78,-4.571 -1.037,-7.743 12.87,-7.98 17.518,-10.49 2.618,-1.403 4.469,-4.139 5.126,-6.955 0.604,-2.596 0.309,-5.71 -0.503,-8.08 -1.961,-5.665 -8.657,-9.76 -15.069,-8.287 -3.096,0.716 -6.918,4.165 -9.594,2.089 -0.56,-0.421 -3.528,-2.23 -3.528,-1.01 h -0.448 v 13.912 c 0,0.631 -0.238,0.899 0.448,0.899 v 0.447 c 3.417,-0.561 3.556,-3.617 5.18,-6.113 2.619,-4.055 7.396,-8.556 12.704,-7.209 2.521,0.645 4.118,2.355 4.944,4.81 0.489,1.502 0.027,3.197 -0.617,4.375 -0.909,1.642 -2.688,2.54 -4.313,3.185 -4.93,1.977 -10.534,1.837 -14.453,5.763 -6.723,6.732 -2.283,20.321 7.759,20.321 v 0.449 m 39.884,0 c 4.034,0 8.166,-0.646 11.232,-2.638 11.875,-7.713 14.482,-26.742 2.184,-35.466 -2.703,-1.894 -5.518,-3.52 -8.962,-3.913 -18.488,-2.077 -28.317,20.322 -17.91,33.939 3.709,4.866 8.049,6.283 13.456,8.078 m 86.941,0 c 3.6,0 7.255,-0.491 10.168,-2.034 12.981,-6.844 15.446,-27.123 3.249,-36.07 -2.662,-1.934 -5.548,-3.52 -8.964,-3.913 -18.722,-2.103 -27.742,19.816 -18.067,33.742 3.418,4.951 8.278,6.634 13.614,8.275 m -276.955,-0.449 c 1.317,-0.084 2.646,-0.127 3.585,-0.939 1.695,-1.459 2.185,-4.306 2.997,-6.298 1.989,-4.867 10.195,-28.188 13.599,-29.97 1.204,-0.629 2.325,-0.996 2.268,-2.707 -0.027,-0.587 0.042,-0.476 -0.489,-0.476 -4.762,-1.291 -11.345,-0.449 -16.582,-0.449 -0.604,0 -0.449,-0.14 -0.449,0.449 h -0.449 c 0.072,0.77 -0.027,2.245 0.898,2.245 0.629,0.309 1.274,0.618 1.903,0.938 1.052,1.962 -0.069,7.069 -2.142,8.023 -1.666,0.771 -11.232,0.91 -12.561,-0.184 -0.981,-0.785 -1.318,-2.103 -1.625,-3.266 -1.302,-4.824 4.565,-5.496 4.565,-5.96 h 0.449 c 0,-0.647 0.294,-1.796 -0.449,-1.796 v -0.449 h -13.893 c -0.629,0 -0.896,-0.281 -0.896,0.449 h -0.448 v 1.796 c 1.401,0.768 2.618,1.275 3.796,2.468 1.988,2.076 2.731,4.866 3.836,7.403 2.452,6.313 4.916,12.623 7.368,18.948 1.315,3.45 2.212,6.914 4.719,9.775 m 40.782,0 c 0.839,-0.267 1.973,-0.66 2.477,-1.473 1.093,-1.753 1.542,-4.082 2.102,-6.114 1.078,-3.422 2.157,-6.858 3.236,-10.281 0.686,-1.822 1.372,-3.645 2.043,-5.47 h 0.449 c 0.7,3.06 5.909,21.501 7.857,22.371 3.025,1.374 10.685,0.518 14.55,0.518 0,-0.743 0.336,-2.693 -0.448,-2.693 v -0.448 c -1.514,-0.085 -3.362,-0.085 -3.964,-1.586 -0.967,-2.328 -0.126,-5.735 -0.084,-8.286 0,-5.092 0.015,-10.182 0.015,-15.261 0,-2.41 -0.352,-5.385 0.434,-7.459 0.671,-1.809 4.495,-1.081 4.495,-1.963 h 0.449 c -0.113,-0.813 0,-2.245 -0.897,-2.245 -4.873,-1.318 -11.667,-0.449 -17.03,-0.449 -0.601,0 -0.449,-0.14 -0.449,0.449 h -0.446 v 2.245 h 0.446 v 0.447 h 4.034 c 0.897,9.663 0.448,20.406 0.448,30.518 h -0.895 c -3.166,-10.309 -6.33,-20.616 -9.496,-30.924 -0.321,-0.758 -0.742,-1.629 -1.723,-1.629 -0.853,0 -1.245,0.593 -1.567,1.25 -3.614,7.377 -5.253,15.849 -8.026,23.604 -0.826,2.566 -1.651,5.132 -2.492,7.699 h -0.896 c 0,-6.886 0.097,-14.164 0.405,-20.645 0.112,-2.216 0.224,-4.43 0.336,-6.647 0.743,-2.973 5.083,-3.395 5.083,-6.367 h -14.789 v 1.796 c 1.697,0.616 3.712,1.555 4.44,3.366 0.981,2.482 0.477,6.268 0.477,9.199 0,7.812 -0.434,15.357 -0.434,22.888 -1.778,0.167 -3.319,0.898 -4.929,0.898 v 1.346 c 4.173,1.935 10.321,0.028 14.789,1.346 m 329.836,0 c 1.402,-0.084 2.617,-0.097 3.585,-0.939 1.652,-1.432 2.116,-4.166 2.926,-6.129 2.577,-6.324 5.167,-12.665 7.745,-18.989 1.219,-3.183 2.312,-7.28 4.467,-10.001 0.813,-1.021 2.789,-2.087 4.134,-2.087 -0.113,-0.801 0,-2.245 -0.898,-2.245 -4.285,-1.275 -11.694,-0.449 -16.581,-0.449 -0.603,0 -0.449,-0.14 -0.449,0.449 h -0.449 c 0.072,0.77 -0.028,2.245 0.898,2.245 0.628,0.309 1.274,0.618 1.903,0.938 1.051,1.962 -0.084,7.069 -2.142,8.023 -1.665,0.771 -11.231,0.91 -12.562,-0.184 -0.841,-0.673 -1.262,-1.892 -1.541,-2.917 -1.485,-5.215 4.482,-5.877 4.482,-6.309 h 0.448 c 0,-0.647 0.293,-1.796 -0.448,-1.796 v -0.449 h -13.893 c -0.631,0 -0.896,-0.281 -0.896,0.449 h -0.45 v 1.796 c 1.445,0.785 2.845,1.387 4.007,2.707 1.919,2.2 2.646,4.962 3.782,7.53 2.449,6.326 4.903,12.65 7.352,18.976 1.175,3.322 2.198,6.674 4.58,9.381 M 2.313,484.568 h 16.133 c 0,-0.701 0.337,-2.243 -0.449,-2.243 v -0.45 c -0.755,0 -2.689,0.337 -2.689,-0.448 h -0.446 c 0.376,-6.003 3.164,-11.977 5.111,-17.419 0.686,-2.117 1.372,-4.247 2.058,-6.366 h 0.448 v 0.448 c 1.569,2.974 4.482,11.403 4.664,14.823 0.083,1.978 -0.728,4.461 -1.444,6.073 -0.601,1.347 -3.766,3.296 -3.781,4.278 0.029,0.154 0.057,0.309 0.072,0.462 0.447,1.234 12.14,0.842 14.382,0.842 0.588,0 0.447,0.154 0.447,-0.448 h 0.449 v -1.795 c -1.135,-0.169 -2.535,-0.379 -2.956,-1.585 -0.993,-2.791 4.146,-15.413 5.281,-18.569 0.421,-1.207 0.84,-2.425 1.26,-3.632 0.588,0 0.449,0.154 0.449,-0.449 h 0.448 v 0.449 c 1.254,3.02 6.288,17.81 4.846,21.065 -0.645,1.459 -1.723,2.132 -3.04,2.776 -0.406,0.211 -2.535,1.74 -1.359,1.74 v 0.448 H 56.09 c -0.771,-2.861 -3.864,-3.744 -5.139,-6.394 -1.304,-2.666 -1.89,-5.625 -2.759,-8.472 -1.625,-5.481 -3.249,-10.981 -4.888,-16.465 -0.965,-3.015 -1.933,-6.046 -2.899,-9.059 -1.149,0.154 -2.534,0.252 -3.292,1.149 -1.26,1.487 -7.464,20.043 -7.464,22.189 h -0.897 c -1.414,-4.363 -2.828,-8.723 -4.255,-13.086 -0.911,-2.931 -1.416,-7.012 -3.335,-9.451 -0.531,-0.661 -1.623,-0.815 -2.437,-0.534 -1.722,0.602 -2.24,4.04 -2.717,5.498 -2.309,7.066 -4.607,14.122 -6.918,21.19 -0.938,2.82 -1.512,6.185 -3.15,8.68 -0.729,1.095 -2.325,2.062 -3.627,2.062 v 2.693 m 59.155,0 h 18.374 c -0.084,-0.785 0.056,-2.693 -0.897,-2.693 -1.344,-0.154 -2.689,-0.309 -4.033,-0.448 v -34.108 c 0.883,0 4.482,0.379 4.482,-0.447 h 0.448 v -2.694 H 61.468 c 0,0.758 -0.335,2.694 0.449,2.694 v 0.447 c 0.923,0.099 2.913,0.028 3.401,0.857 1.121,1.975 0.617,5.596 0.617,8.118 0,8.373 0.015,16.747 0.015,25.133 h -4.482 v 3.141 m 23.753,0 h 20.166 c 0,-0.743 0.322,-2.693 -0.449,-2.693 v -0.448 h -5.377 c 0.014,-10.463 0.042,-21.043 0.054,-31.401 0.03,-0.848 -0.167,-2.707 0.841,-2.707 1.484,-0.49 3.223,-0.406 4.917,-0.393 10.308,0.169 9.41,12.062 14.354,12.062 -0.155,-4.768 -0.449,-9.327 -0.449,-13.912 0,-0.589 0.141,-0.449 -0.446,-0.449 v -0.449 c -7.915,0 -15.827,0 -23.753,0.014 -2.996,0 -6.694,-0.463 -9.285,0.408 -0.391,0.138 -2.17,1.374 -1.023,1.374 v 0.898 c 0.926,0.293 4.93,0.278 4.93,1.346 1.932,4.459 0.897,16.239 0.897,21.99 0,2.903 0.517,6.717 -0.364,9.242 -0.952,2.706 -5.463,1.613 -5.463,4.67 0.155,0.154 0.31,0.294 0.45,0.448 m 39.435,0 h 20.168 c 0,-0.743 0.322,-2.693 -0.448,-2.693 v -0.448 h -5.378 c 0,-4.657 -0.786,-31.57 0.728,-33.391 1.05,-1.263 4.3,-1.164 5.994,-1.164 1.961,0.995 3.879,0.91 5.644,2.453 3.024,2.691 4.131,9.663 7.801,9.663 -0.155,-4.768 -0.449,-9.327 -0.449,-13.912 0,-0.589 0.139,-0.449 -0.447,-0.449 v -0.449 c -10.492,0 -20.812,0.449 -30.924,0.449 -0.769,0 -3.137,-0.336 -3.137,0.449 h -0.447 c 0,0.63 -0.307,1.347 0.447,1.347 1.401,1.331 3.949,0.56 4.958,2.468 1.274,2.439 1.541,27.5 0.476,30.559 -0.938,2.678 -5.434,1.725 -5.434,4.67 0.155,0.154 0.308,0.294 0.448,0.448 m 39.886,0 h 18.374 c -0.084,-0.785 0.056,-2.693 -0.896,-2.693 -1.345,-0.154 -2.689,-0.309 -4.034,-0.448 v -34.108 c 0.883,0 4.483,0.379 4.483,-0.447 h 0.447 v -2.694 h -18.374 c 0,0.758 -0.337,2.694 0.449,2.694 v 0.447 c 0.895,0.099 2.926,0.028 3.402,0.857 1.359,2.396 0.617,7.321 0.617,10.363 0,7.628 0.014,15.26 0.014,22.888 h -4.482 v 3.141 m 258.132,0 c 3.264,0 10.476,0.758 12.927,-0.546 1.01,-0.534 18.892,-24.137 18.892,-24.137 h 0.449 c 0,0.603 -0.154,0.449 0.449,0.449 0,5.12 0.797,13.395 -0.367,17.84 -0.824,3.113 -5.46,3.842 -5.46,5.946 h 0.448 v 0.448 h 13.443 c 0.59,0 0.449,0.154 0.449,-0.448 h 0.45 c -0.996,-3.198 -4.189,-3.017 -5.071,-6.802 -0.968,-4.038 -0.308,-9.453 -0.308,-13.843 0,-6.621 -0.448,-12.86 -0.448,-19.297 -1.681,0.113 -3.082,0.169 -4.286,1.149 -2.113,1.74 -21.707,27.656 -21.707,28.472 h -0.897 v -16.607 c 0,-2.369 -0.252,-5.133 0.632,-7.084 0.867,-1.918 2.367,-2.579 4.116,-3.545 0.575,-0.311 2.199,-2.385 1.078,-2.385 v -0.449 c -4.467,0.729 -9.48,0.449 -14.34,0.449 -0.603,0 -0.449,-0.14 -0.449,0.449 h -0.449 v 1.796 c 1.767,0.644 3.685,1.526 4.594,3.323 1.822,3.66 1.107,12.509 1.261,17.321 0.101,3.308 1.024,7.418 0.043,10.67 -0.826,2.722 -5.898,4.461 -5.898,5.036 -0.279,0.422 -0.825,0.898 0,0.898 0.155,0.294 0.309,0.588 0.449,0.897 m 85.597,0 c 3.558,0 13.305,0.701 15.825,-0.561 1.078,-0.533 7.925,-20.18 7.925,-22.328 h 0.45 v 0.449 h 0.447 c 0.505,3.184 5.336,20.07 7.086,21.585 1.878,1.641 10.828,0.855 13.978,0.855 0.617,0 0.897,0.24 0.897,-0.448 h 0.448 c -0.154,-0.743 -0.294,-1.501 -0.448,-2.245 -0.911,-0.238 -4.034,-0.281 -4.034,-1.346 -1.218,-2.734 -0.715,-30.123 0.574,-32.411 0.614,-1.092 3.095,-1.246 4.354,-1.246 0,-0.702 0.309,-2.245 -0.446,-2.245 v -0.449 h -16.583 c -0.63,0 -1.345,-0.294 -1.345,0.449 h -0.449 v 2.245 c 1.5,0.154 3,0.293 4.484,0.447 0.895,9.663 0.448,20.406 0.448,30.518 h -0.448 v -0.449 c -0.813,-2.216 -1.624,-4.432 -2.436,-6.648 -1.976,-5.918 -3.726,-11.978 -5.59,-18.034 -0.754,-2.694 -1.511,-5.387 -2.28,-8.079 -1.36,-0.043 -2.005,0.239 -2.677,1.347 -0.966,2.666 -1.932,5.329 -2.898,7.993 -1.793,5.386 -3.585,10.772 -5.378,16.157 -0.826,2.425 -1.653,4.838 -2.492,7.264 h -0.45 v -18.4 c 0,-2.818 -0.322,-5.877 0.365,-8.4 0.391,-1.475 1.248,-2.525 2.521,-3.407 0.559,-0.395 2.577,-1.277 2.031,-2.344 -0.883,-1.668 -10.855,-1.065 -13.43,-1.108 -0.604,0 -0.449,-0.14 -0.449,0.449 h -0.45 v 1.347 c 1.641,1.065 3.713,1.878 4.567,3.772 1.192,2.68 0.797,6.408 0.797,9.691 0,6.73 0.016,13.464 0.016,20.195 h -0.449 c 0,-0.618 0.295,-1.346 -0.447,-1.346 0.152,1.052 0.307,2.09 0.447,3.142 -0.854,0.112 -4.481,0.224 -4.481,0.896 h -0.45 c 0.156,0.898 0.31,1.796 0.45,2.693 M 182.02,483.671 v 0 m 213.767,-1.346 v -0.45 c -9.903,-4.571 -8.488,-36.91 4.44,-35.623 11.649,1.181 9.562,29.706 2.114,34.951 -1.766,1.234 -4.216,1.122 -6.554,1.122 m 86.939,0 v -0.45 c -9.886,-4.557 -8.487,-36.91 4.439,-35.623 11.653,1.181 9.566,29.72 2.114,34.951 -1.763,1.234 -4.227,1.122 -6.553,1.122 M 205.323,472.9 c -1.19,-3.31 -4.93,-10.083 -4.93,-13.462 1.429,0 9.411,-0.281 9.411,0.447 h 0.449 c -0.841,4.488 -2.592,9.326 -4.93,13.015 m 370.619,-0.448 c -1.235,-3.423 -4.931,-9.438 -4.931,-13.014 1.415,0 9.411,-0.281 9.411,0.447 h 0.449 c -0.797,4.251 -2.338,9.271 -4.929,12.567 M 324.083,462.128 h 12.549 v -4.936 h -11.653 c -0.628,0 -0.896,-0.28 -0.896,0.45 h -0.449 c 0.154,1.501 0.308,2.986 0.449,4.486 M 223.25,448.218 v -0.449 0.449 m -22.409,-2.244 v -0.449 0.449" /></g></g></g></svg>
